<svg width="10" height="15" viewBox="0 0 10 15" fill="none" xmlns="http://www.w3.org/2000/svg">
<path d="M5.57369 8.48377C3.23202 10.8346 3.52119 13.1896 4.58452 14.9633C2.1416 13.9217 -0.113813 9.79168 3.01119 6.04168C6.34452 2.70835 5.71952 1.25002 5.71952 1.52588e-05C6.76119 1.87502 8.38869 5.65835 5.57369 8.48377Z" fill="#6CAE27"/>
<path d="M5.08775 14.9992C4.58942 13.9188 4.06942 11.3055 5.57942 9.79087C8.29942 6.9867 7.86275 4.52962 7.80233 4.38128L7.79775 4.3742C7.79886 4.3742 7.80067 4.37656 7.80233 4.38128C7.91442 4.55795 10.0478 8.01878 8.47733 11.8742C9.38358 11.3509 9.769 10.6363 9.88108 10.4159C9.41192 14.2175 7.01358 14.8434 5.08775 14.9992ZM4.25608 3.95753C3.00608 4.72128 0.18025 6.66587 0.0135837 9.16587C-0.153083 11.6659 1.26358 12.7075 2.09692 13.5409C1.68025 12.9159 0.846917 11.3742 0.846917 9.3742C0.846917 7.3742 3.14483 4.86045 4.25608 3.95753Z" fill="#6CAE27"/>
</svg>
