<svg width="37" height="37" viewBox="0 0 37 37" fill="none" xmlns="http://www.w3.org/2000/svg">
<path d="M12.025 3.0835H24.975C29.9083 3.0835 33.9166 7.09182 33.9166 12.0251V24.9751C33.9166 27.3466 32.9746 29.6209 31.2977 31.2978C29.6208 32.9747 27.3465 33.9168 24.975 33.9168H12.025C7.0917 33.9168 3.08337 29.9084 3.08337 24.9751V12.0251C3.08337 9.65367 4.02544 7.37933 5.70232 5.70244C7.37921 4.02556 9.65355 3.0835 12.025 3.0835ZM11.7167 6.16682C10.2447 6.16682 8.83308 6.75155 7.79225 7.79238C6.75143 8.8332 6.1667 10.2449 6.1667 11.7168V25.2834C6.1667 28.3514 8.64878 30.8334 11.7167 30.8334H25.2833C26.7553 30.8334 28.1669 30.2487 29.2078 29.2079C30.2486 28.1671 30.8333 26.7554 30.8333 25.2834V11.7168C30.8333 8.6489 28.3512 6.16682 25.2833 6.16682H11.7167ZM26.5937 8.47932C27.1048 8.47932 27.595 8.68235 27.9564 9.04375C28.3178 9.40514 28.5208 9.8953 28.5208 10.4064C28.5208 10.9175 28.3178 11.4076 27.9564 11.769C27.595 12.1304 27.1048 12.3335 26.5937 12.3335C26.0826 12.3335 25.5925 12.1304 25.2311 11.769C24.8697 11.4076 24.6667 10.9175 24.6667 10.4064C24.6667 9.8953 24.8697 9.40514 25.2311 9.04375C25.5925 8.68235 26.0826 8.47932 26.5937 8.47932ZM18.5 10.7918C20.5444 10.7918 22.505 11.6039 23.9506 13.0495C25.3962 14.4951 26.2083 16.4558 26.2083 18.5001C26.2083 20.5445 25.3962 22.5051 23.9506 23.9507C22.505 25.3963 20.5444 26.2084 18.5 26.2084C16.4556 26.2084 14.495 25.3963 13.0494 23.9507C11.6038 22.5051 10.7917 20.5445 10.7917 18.5001C10.7917 16.4558 11.6038 14.4951 13.0494 13.0495C14.495 11.6039 16.4556 10.7918 18.5 10.7918ZM18.5 13.8751C17.2734 13.8751 16.097 14.3624 15.2296 15.2298C14.3623 16.0971 13.875 17.2735 13.875 18.5001C13.875 19.7268 14.3623 20.9031 15.2296 21.7705C16.097 22.6378 17.2734 23.1251 18.5 23.1251C19.7266 23.1251 20.903 22.6378 21.7704 21.7705C22.6377 20.9031 23.125 19.7268 23.125 18.5001C23.125 17.2735 22.6377 16.0971 21.7704 15.2298C20.903 14.3624 19.7266 13.8751 18.5 13.8751Z" fill="white"/>
</svg>
