<svg width="37" height="37" viewBox="0 0 37 37" fill="none" xmlns="http://www.w3.org/2000/svg">
<path d="M29.2915 7.56982C27.8779 6.1424 26.1944 5.01061 24.3389 4.24039C22.4835 3.47016 20.4934 3.07692 18.4845 3.08358C10.067 3.08358 3.20659 9.94398 3.20659 18.3615C3.20659 21.0594 3.91575 23.6802 5.24158 25.9927L3.08325 33.9168L11.177 31.7894C13.4124 33.0073 15.9253 33.6548 18.4845 33.6548C26.9019 33.6548 33.7624 26.7944 33.7624 18.3769C33.7624 14.2915 32.1744 10.4527 29.2915 7.56982ZM18.4845 31.0648C16.2028 31.0648 13.9674 30.4481 12.0095 29.2919L11.547 29.0144L6.73699 30.2785L8.01657 25.5919L7.70824 25.1139C6.4403 23.0898 5.76717 20.7499 5.76575 18.3615C5.76575 11.3623 11.4699 5.65816 18.469 5.65816C21.8607 5.65816 25.052 6.98399 27.4415 9.38898C28.6249 10.5666 29.5627 11.9675 30.2005 13.5104C30.8383 15.0532 31.1634 16.7074 31.1569 18.3769C31.1878 25.376 25.4836 31.0648 18.4845 31.0648ZM25.4528 21.5681C25.0674 21.3831 23.1865 20.4581 22.8474 20.3194C22.4928 20.196 22.2461 20.1344 21.984 20.5044C21.722 20.8898 20.9974 21.7531 20.7815 21.9998C20.5657 22.2619 20.3345 22.2927 19.949 22.0923C19.5636 21.9073 18.3303 21.491 16.8811 20.196C15.7403 19.1785 14.9849 17.9298 14.7536 17.5444C14.5378 17.159 14.7228 16.9585 14.9232 16.7581C15.0928 16.5886 15.3086 16.3111 15.4936 16.0952C15.6786 15.8794 15.7557 15.7098 15.8791 15.4631C16.0024 15.2011 15.9407 14.9852 15.8482 14.8002C15.7557 14.6152 14.9849 12.7344 14.6766 11.9636C14.3682 11.2236 14.0445 11.3161 13.8132 11.3006H13.0732C12.8111 11.3006 12.4103 11.3931 12.0557 11.7786C11.7166 12.164 10.7299 13.089 10.7299 14.9698C10.7299 16.8506 12.102 18.6698 12.287 18.9165C12.472 19.1785 14.9849 23.0327 18.8082 24.6823C19.7178 25.0831 20.427 25.3144 20.982 25.4839C21.8915 25.7769 22.724 25.7306 23.387 25.6381C24.127 25.5302 25.6532 24.7131 25.9615 23.819C26.2853 22.9248 26.2853 22.1694 26.1774 21.9998C26.0695 21.8302 25.8382 21.7531 25.4528 21.5681Z" fill="white"/>
</svg>
